# xmcd
#
# Track frame offsets: 
#        150
#        16480
#        35436
#        52712
#        66800
#        83988
#        106245
#
# Disc length: 1642 seconds
#
# Revision: 0
# Processed by: cddbd v1.5.2PL0 Copyright (c) Steve Scherf et al.
# Submitted via: ExactAudioCopy v0.95b4
#
DISCID=4d066807
DTITLE=Gougers, The - Bootlegs Volume 1
DYEAR=2007
DGENRE=Country
TTITLE0=Devil's Words
TTITLE1=Wallace Pack Saturday
TTITLE2=Train Song
TTITLE3=But A Man
TTITLE4=Ordinary People
TTITLE5=Dead End
TTITLE6=New Braunfels Homesick Blues
EXTD=
EXTT0=
EXTT1=
EXTT2=
EXTT3=
EXTT4=
EXTT5=
EXTT6=
PLAYORDER=
